Coordinates
version=1
nRows=8
nColumns=36
inDegrees=yes

Units are S.I. units (second, meters, Newtons, ...)
If the header above contains a line with 'inDegrees', this indicates whether rotational values are in degrees (yes) or radians (no).

endheader
time	pelvis_tilt	pelvis_list	pelvis_rotation	pelvis_tx	pelvis_ty	pelvis_tz	hip_flexion_r	hip_adduction_r	hip_rotation_r	knee_angle_r	knee_angle_r_beta	ankle_angle_r	subtalar_angle_r	mtp_angle_r	hip_flexion_l	hip_adduction_l	hip_rotation_l	knee_angle_l	knee_angle_l_beta	ankle_angle_l	subtalar_angle_l	mtp_angle_l	lumbar_extension	lumbar_bending	lumbar_rotation	arm_flex_r	arm_add_r	arm_rot_r	elbow_flex_r	pro_sup_r	arm_flex_l	arm_add_l	arm_rot_l	elbow_flex_l	pro_sup_l
      6.13333330	      1.16600535	     -3.42280926	      3.52391031	      0.51399998	      0.78362040	      0.02426047	     54.42055271	     -6.70348045	     -7.24096507	     22.08395541	      0.38543773	     -7.87720913	    -18.19110755	     -7.49999987	     34.53969017	      7.37495001	     -1.20693105	     66.75119392	      1.16502811	     28.67831137	     -7.84150063	     -7.49999987	    -42.79837740	     -0.85501830	     -5.44438406	     45.51884719	      3.68782743	     74.20087794	    119.20811192	     94.74707420	     62.02282664	      6.00903063	     74.29324755	    121.98459960	     74.34104440
      6.15000000	      1.32864476	     -3.17403944	      4.01929972	      0.51408028	      0.78308627	      0.02432557	     54.01108554	     -7.35904631	     -7.53254766	     21.64666829	      0.37780563	     -7.54281529	    -17.00308134	     -7.49999987	     34.54804849	      7.58952998	     -1.12137466	     67.20956061	      1.17302812	     29.14522403	     -6.83894839	     -7.49999987	    -43.54562980	     -1.03216322	     -6.03136279	     45.42150453	      3.88335302	     73.73642284	    118.96374556	     99.44500260	     62.41375839	      6.14019934	     74.52042029	    122.33566190	     76.90269175
      6.16666670	      1.22425100	     -3.14687442	      4.29736400	      0.51412604	      0.77853850	      0.02404195	     54.03247658	     -7.81733078	     -7.65534706	     21.62633791	      0.37745080	     -7.21278317	    -16.87335481	     -7.49999987	     35.18243731	      7.76887497	     -0.95637415	     68.10915418	      1.18872899	     29.60161941	     -6.38612105	     -7.49999987	    -43.93977987	     -1.02645357	     -6.35440260	     45.58520922	      3.95096781	     73.63837448	    118.85495561	     99.14705043	     62.59087319	      6.14469441	     74.89463674	    122.80200915	     76.40572397
      6.18333330	      1.33764720	     -3.03515553	      4.43552873	      0.51369120	      0.77806706	      0.02398217	     53.73598131	     -8.21759605	     -8.09304449	     21.85335522	      0.38141300	     -7.26859619	    -17.23749915	     -7.49999987	     35.33466920	      7.90944457	     -1.08273410	     68.45802872	      1.19481800	     29.28449541	     -6.25377483	     -7.49999987	    -44.53712059	     -1.16228689	     -6.55530964	     45.66474551	      4.01147952	     73.77566545	    118.85714146	     98.33939449	     62.59333052	      6.23241269	     75.25657064	    123.17761374	     76.42676878
      6.20000000	      1.22173075	     -3.09847322	      4.75171621	      0.51237100	      0.77140892	      0.02880285	     54.13452072	     -8.37409047	     -7.86887161	     22.02367338	      0.38438561	     -7.75867191	    -18.40359267	     -7.49999987	     36.26512521	      7.61687530	     -1.09475996	     69.70490028	      1.21658001	     29.62409971	     -5.56298936	     -7.49999987	    -44.70160656	     -1.45426125	     -6.79852541	     45.90751215	      4.20343663	     73.91732397	    119.16062054	     97.53598569	     62.83862306	      6.45650672	     75.80943564	    123.14781034	     76.83234221
      6.21666670	      1.23574005	     -2.98677065	      5.09085484	      0.51170565	      0.76949616	      0.02861220	     54.25356645	     -8.74510234	     -7.83841891	     22.08319003	      0.38542438	     -7.56197023	    -18.28511890	     -7.49999987	     36.95118014	      7.88893501	     -0.91294832	     70.67411558	      1.23349601	     29.71414219	     -5.69144828	     -7.49999987	    -44.92666998	     -1.74348868	     -7.14250140	     46.04846794	      4.52434062	     73.75730173	    119.20828422	     96.98709549	     62.91548561	      6.77587272	     75.89172957	    122.98702635	     76.56138285
      6.23333330	      0.78691073	     -3.02645859	      5.43886304	      0.50750483	      0.76221546	      0.02947419	     55.13731806	     -9.04260447	     -7.60518071	     22.15900235	      0.38674755	     -7.60377687	    -18.54631879	     -7.49999987	     38.54834725	      8.03901200	     -0.75541620	     72.14795626	      1.25921939	     30.45856728	     -5.25023595	     -7.49999987	    -44.72063913	     -1.86834189	     -7.28254885	     46.50021858	      4.59750758	     73.29774762	    120.42647217	     97.60216351	     63.51280134	      7.07503449	     76.28445105	    123.23983027	     77.02136745
      6.25000000	      0.64277288	     -3.04539599	      5.40134143	      0.50774081	      0.75959131	      0.02894261	     55.64458112	     -9.10886783	     -7.45792278	     22.63411799	      0.39503988	     -7.73933991	    -19.07461107	     -7.49999987	     39.52348435	      8.17854882	     -0.76731655	     73.26136181	      1.27865198	     30.52559927	     -5.72748286	     -7.49999987	    -44.69381046	     -1.99359835	     -7.44306336	     46.72100358	      4.69882110	     72.85681182	    121.01968309	     97.85438194	     63.74730726	      7.11957553	     76.12588818	    123.46164738	     77.00177631
